<svg id="my-svg" width="709.7265625" xmlns="http://www.w3.org/2000/svg" xmlns:xlink="http://www.w3.org/1999/xlink" height="2148" viewBox="-8 -8 709.7265625 2148" role="graphics-document document" aria-roledescription="flowchart-v2" style="background-color: white;"><style>#my-svg{font-family:"trebuchet ms",verdana,arial,sans-serif;font-size:16px;fill:#00a000;}#my-svg .error-icon{fill:hsl(180, 0%, 100%);}#my-svg .error-text{fill:rgb(0, 0, 0);stroke:rgb(0, 0, 0);}#my-svg .edge-thickness-normal{stroke-width:2px;}#my-svg .edge-thickness-thick{stroke-width:3.5px;}#my-svg .edge-pattern-solid{stroke-dasharray:0;}#my-svg .edge-pattern-dashed{stroke-dasharray:3;}#my-svg .edge-pattern-dotted{stroke-dasharray:2;}#my-svg .marker{fill:#00a000;stroke:#00a000;}#my-svg .marker.cross{stroke:#00a000;}#my-svg svg{font-family:"trebuchet ms",verdana,arial,sans-serif;font-size:16px;}#my-svg .label{font-family:"trebuchet ms",verdana,arial,sans-serif;color:#00a000;}#my-svg .cluster-label text{fill:rgb(0, 0, 0);}#my-svg .cluster-label span,#my-svg p{color:rgb(0, 0, 0);}#my-svg .label text,#my-svg span,#my-svg p{fill:#00a000;color:#00a000;}#my-svg .node rect,#my-svg .node circle,#my-svg .node ellipse,#my-svg .node polygon,#my-svg .node path{fill:#ffffff;stroke:#00a000;stroke-width:1px;}#my-svg .flowchart-label text{text-anchor:middle;}#my-svg .node .katex path{fill:#000;stroke:#000;stroke-width:1px;}#my-svg .node .label{text-align:center;}#my-svg .node.clickable{cursor:pointer;}#my-svg .arrowheadPath{fill:#0b0b0b;}#my-svg .edgePath .path{stroke:#00a000;stroke-width:2.0px;}#my-svg .flowchart-link{stroke:#00a000;fill:none;}#my-svg .edgeLabel{background-color:hsl(-120, 0%, 100%);text-align:center;}#my-svg .edgeLabel rect{opacity:0.5;background-color:hsl(-120, 0%, 100%);fill:hsl(-120, 0%, 100%);}#my-svg .labelBkg{background-color:rgba(255, 255, 255, 0.5);}#my-svg .cluster rect{fill:#ffffff;stroke:#00a000;stroke-width:1px;}#my-svg .cluster text{fill:rgb(0, 0, 0);}#my-svg .cluster span,#my-svg p{color:rgb(0, 0, 0);}#my-svg div.mermaidTooltip{position:absolute;text-align:center;max-width:200px;padding:2px;font-family:"trebuchet ms",verdana,arial,sans-serif;font-size:12px;background:hsl(180, 0%, 100%);border:1px solid hsl(180, 0%, 90%);border-radius:2px;pointer-events:none;z-index:100;}#my-svg .flowchartTitleText{text-anchor:middle;font-size:18px;fill:#00a000;}#my-svg :root{--mermaid-font-family:"trebuchet ms",verdana,arial,sans-serif;}</style><g><marker id="my-svg_flowchart-pointEnd" class="marker flowchart" viewBox="0 0 10 10" refX="6" refY="5" markerUnits="userSpaceOnUse" markerWidth="12" markerHeight="12" orient="auto"><path d="M 0 0 L 10 5 L 0 10 z" class="arrowMarkerPath" style="stroke-width: 1; stroke-dasharray: 1, 0;"/></marker><marker id="my-svg_flowchart-pointStart" class="marker flowchart" viewBox="0 0 10 10" refX="4.5" refY="5" markerUnits="userSpaceOnUse" markerWidth="12" markerHeight="12" orient="auto"><path d="M 0 5 L 10 10 L 10 0 z" class="arrowMarkerPath" style="stroke-width: 1; stroke-dasharray: 1, 0;"/></marker><marker id="my-svg_flowchart-circleEnd" class="marker flowchart" viewBox="0 0 10 10" refX="11" refY="5" markerUnits="userSpaceOnUse" markerWidth="11" markerHeight="11" orient="auto"><circle cx="5" cy="5" r="5" class="arrowMarkerPath" style="stroke-width: 1; stroke-dasharray: 1, 0;"/></marker><marker id="my-svg_flowchart-circleStart" class="marker flowchart" viewBox="0 0 10 10" refX="-1" refY="5" markerUnits="userSpaceOnUse" markerWidth="11" markerHeight="11" orient="auto"><circle cx="5" cy="5" r="5" class="arrowMarkerPath" style="stroke-width: 1; stroke-dasharray: 1, 0;"/></marker><marker id="my-svg_flowchart-crossEnd" class="marker cross flowchart" viewBox="0 0 11 11" refX="12" refY="5.2" markerUnits="userSpaceOnUse" markerWidth="11" markerHeight="11" orient="auto"><path d="M 1,1 l 9,9 M 10,1 l -9,9" class="arrowMarkerPath" style="stroke-width: 2; stroke-dasharray: 1, 0;"/></marker><marker id="my-svg_flowchart-crossStart" class="marker cross flowchart" viewBox="0 0 11 11" refX="-1" refY="5.2" markerUnits="userSpaceOnUse" markerWidth="11" markerHeight="11" orient="auto"><path d="M 1,1 l 9,9 M 10,1 l -9,9" class="arrowMarkerPath" style="stroke-width: 2; stroke-dasharray: 1, 0;"/></marker><g class="root"><g class="clusters"><g class="cluster default flowchart-label" id="FUNCTION_GROUPS"><rect style="" rx="0" ry="0" x="187.671875" y="0" width="506.0546875" height="1278"/><g class="cluster-label" transform="translate(440.69921875, 0)"><text style=""><tspan xml:space="preserve" dy="1em" x="0" class="row">Function groups</tspan></text></g></g><g class="cluster default flowchart-label" id="MODULES"><rect style="" rx="0" ry="0" x="187.671875" y="1446" width="506.0546875" height="686"/><g class="cluster-label" transform="translate(440.69921875, 1446)"><text style=""><tspan xml:space="preserve" dy="1em" x="0" class="row">Imported modules</tspan></text></g></g></g><g class="edgePaths"><path d="M57.572,1379L72.588,1447.333C87.605,1515.667,117.639,1652.333,139.322,1720.667C161.005,1789,174.339,1789,189.637,1789C204.935,1789,222.198,1789,230.83,1789L239.462,1789" id="L-FILE-IMPORT_SUMMARY-0" class="edge-thickness-normal edge-pattern-solid flowchart-link LS-FILE LE-IMPORT_SUMMARY" style="fill:none;" marker-end="url(#my-svg_flowchart-pointEnd)"/><path d="M96.95,1345L105.403,1341.667C113.857,1338.333,130.764,1331.667,145.885,1328.333C161.005,1325,174.339,1325,187.676,1325C201.013,1325,214.355,1325,221.025,1325L227.696,1325" id="L-FILE-SYMBOL_SUMMARY-0" class="edge-thickness-normal edge-pattern-solid flowchart-link LS-FILE LE-SYMBOL_SUMMARY" style="fill:none;" marker-end="url(#my-svg_flowchart-pointEnd)"/><path d="M56.042,1345L71.314,1227.333C86.586,1109.667,117.129,874.333,139.067,756.667C161.005,639,174.339,639,186.789,639C199.239,639,210.805,639,216.589,639L222.372,639" id="L-FILE-FUNCTION_SUMMARY-0" class="edge-thickness-normal edge-pattern-solid flowchart-link LS-FILE LE-FUNCTION_SUMMARY" style="fill:none;" marker-end="url(#my-svg_flowchart-pointEnd)"/><path d="M96.95,1379L105.403,1382.333C113.857,1385.667,130.764,1392.333,145.885,1395.667C161.005,1399,174.339,1399,194.688,1399C215.037,1399,242.402,1399,256.084,1399L269.766,1399" id="L-FILE-CLASS_SUMMARY-0" class="edge-thickness-normal edge-pattern-solid flowchart-link LS-FILE LE-CLASS_SUMMARY" style="fill:none;" marker-end="url(#my-svg_flowchart-pointEnd)"/><path d="M325.316,1772L345.764,1725.5C366.213,1679,407.11,1586,439.247,1539.5C471.384,1493,494.761,1493,506.449,1493L518.138,1493" id="L-IMPORT_SUMMARY-module___future-0" class="edge-thickness-normal edge-pattern-solid flowchart-link LS-IMPORT_SUMMARY LE-module___future" style="fill:none;" marker-end="url(#my-svg_flowchart-pointEnd)"/><path d="M327.808,1772L347.841,1737.833C367.874,1703.667,407.941,1635.333,436.468,1601.167C464.995,1567,481.982,1567,490.476,1567L498.97,1567" id="L-IMPORT_SUMMARY-module_config_constants-0" class="edge-thickness-normal edge-pattern-solid flowchart-link LS-IMPORT_SUMMARY LE-module_config_constants" style="fill:none;" marker-end="url(#my-svg_flowchart-pointEnd)"/><path d="M332.792,1772L351.994,1750.167C371.197,1728.333,409.602,1684.667,441.683,1662.833C473.765,1641,499.521,1641,512.4,1641L525.278,1641" id="L-IMPORT_SUMMARY-module_datetime-0" class="edge-thickness-normal edge-pattern-solid flowchart-link LS-IMPORT_SUMMARY LE-module_datetime" style="fill:none;" marker-end="url(#my-svg_flowchart-pointEnd)"/><path d="M347.743,1772L364.454,1762.5C381.165,1753,414.586,1734,444.825,1724.5C475.064,1715,502.12,1715,515.648,1715L529.177,1715" id="L-IMPORT_SUMMARY-module_emx_api-0" class="edge-thickness-normal edge-pattern-solid flowchart-link LS-IMPORT_SUMMARY LE-module_emx_api" style="fill:none;" marker-end="url(#my-svg_flowchart-pointEnd)"/><path d="M390.918,1789L400.433,1789C409.948,1789,428.978,1789,454.259,1789C479.539,1789,511.071,1789,526.837,1789L542.602,1789" id="L-IMPORT_SUMMARY-module_json-0" class="edge-thickness-normal edge-pattern-solid flowchart-link LS-IMPORT_SUMMARY LE-module_json" style="fill:none;" marker-end="url(#my-svg_flowchart-pointEnd)"/><path d="M347.743,1806L364.454,1815.5C381.165,1825,414.586,1844,446.554,1853.5C478.522,1863,509.037,1863,524.294,1863L539.552,1863" id="L-IMPORT_SUMMARY-module_math-0" class="edge-thickness-normal edge-pattern-solid flowchart-link LS-IMPORT_SUMMARY LE-module_math" style="fill:none;" marker-end="url(#my-svg_flowchart-pointEnd)"/><path d="M332.792,1806L351.994,1827.833C371.197,1849.667,409.602,1893.333,445.85,1915.167C482.097,1937,516.185,1937,533.23,1937L550.274,1937" id="L-IMPORT_SUMMARY-module_os-0" class="edge-thickness-normal edge-pattern-solid flowchart-link LS-IMPORT_SUMMARY LE-module_os" style="fill:none;" marker-end="url(#my-svg_flowchart-pointEnd)"/><path d="M327.808,1806L347.841,1840.167C367.874,1874.333,407.941,1942.667,441.691,1976.833C475.44,2011,502.873,2011,516.589,2011L530.305,2011" id="L-IMPORT_SUMMARY-module_pygame-0" class="edge-thickness-normal edge-pattern-solid flowchart-link LS-IMPORT_SUMMARY LE-module_pygame" style="fill:none;" marker-end="url(#my-svg_flowchart-pointEnd)"/><path d="M325.316,1806L345.764,1852.5C366.213,1899,407.11,1992,439.826,2038.5C472.541,2085,497.073,2085,509.34,2085L521.606,2085" id="L-IMPORT_SUMMARY-module_tuning_api-0" class="edge-thickness-normal edge-pattern-solid flowchart-link LS-IMPORT_SUMMARY LE-module_tuning_api" style="fill:none;" marker-end="url(#my-svg_flowchart-pointEnd)"/><path d="M321.578,622L342.649,526.167C363.721,430.333,405.864,238.667,436.637,142.833C467.41,47,486.813,47,496.514,47L506.216,47" id="L-FUNCTION_SUMMARY-group_draw-0" class="edge-thickness-normal edge-pattern-solid flowchart-link LS-FUNCTION_SUMMARY LE-group_draw" style="fill:none;" marker-end="url(#my-svg_flowchart-pointEnd)"/><path d="M322.112,622L343.094,538.5C364.077,455,406.042,288,437.341,204.5C468.64,121,489.271,121,499.587,121L509.903,121" id="L-FUNCTION_SUMMARY-group_build-0" class="edge-thickness-normal edge-pattern-solid flowchart-link LS-FUNCTION_SUMMARY LE-group_build" style="fill:none;" marker-end="url(#my-svg_flowchart-pointEnd)"/><path d="M322.824,622L343.688,550.833C364.552,479.667,406.28,337.333,436.435,266.167C466.59,195,485.172,195,494.464,195L503.755,195" id="L-FUNCTION_SUMMARY-group_format-0" class="edge-thickness-normal edge-pattern-solid flowchart-link LS-FUNCTION_SUMMARY LE-group_format" style="fill:none;" marker-end="url(#my-svg_flowchart-pointEnd)"/><path d="M323.821,622L344.518,563.167C365.216,504.333,406.612,386.667,436.39,327.833C466.168,269,484.329,269,493.409,269L502.489,269" id="L-FUNCTION_SUMMARY-group_resolve-0" class="edge-thickness-normal edge-pattern-solid flowchart-link LS-FUNCTION_SUMMARY LE-group_resolve" style="fill:none;" marker-end="url(#my-svg_flowchart-pointEnd)"/><path d="M325.316,622L345.764,575.5C366.213,529,407.11,436,438.293,389.5C469.476,343,490.943,343,501.677,343L512.411,343" id="L-FUNCTION_SUMMARY-group_save-0" class="edge-thickness-normal edge-pattern-solid flowchart-link LS-FUNCTION_SUMMARY LE-group_save" style="fill:none;" marker-end="url(#my-svg_flowchart-pointEnd)"/><path d="M327.808,622L347.841,587.833C367.874,553.667,407.941,485.333,439.503,451.167C471.064,417,494.12,417,505.648,417L517.177,417" id="L-FUNCTION_SUMMARY-group_snapshot-0" class="edge-thickness-normal edge-pattern-solid flowchart-link LS-FUNCTION_SUMMARY LE-group_snapshot" style="fill:none;" marker-end="url(#my-svg_flowchart-pointEnd)"/><path d="M332.792,622L351.994,600.167C371.197,578.333,409.602,534.667,440.443,512.833C471.283,491,494.558,491,506.195,491L517.833,491" id="L-FUNCTION_SUMMARY-group_compact-0" class="edge-thickness-normal edge-pattern-solid flowchart-link LS-FUNCTION_SUMMARY LE-group_compact" style="fill:none;" marker-end="url(#my-svg_flowchart-pointEnd)"/><path d="M347.743,622L364.454,612.5C381.165,603,414.586,584,439.441,574.5C464.296,565,480.584,565,488.728,565L496.872,565" id="L-FUNCTION_SUMMARY-group_compute-0" class="edge-thickness-normal edge-pattern-solid flowchart-link LS-FUNCTION_SUMMARY LE-group_compute" style="fill:none;" marker-end="url(#my-svg_flowchart-pointEnd)"/><path d="M408.008,639L414.674,639C421.341,639,434.674,639,452.473,639C470.272,639,492.537,639,503.669,639L514.802,639" id="L-FUNCTION_SUMMARY-group_configure-0" class="edge-thickness-normal edge-pattern-solid flowchart-link LS-FUNCTION_SUMMARY LE-group_configure" style="fill:none;" marker-end="url(#my-svg_flowchart-pointEnd)"/><path d="M347.743,656L364.454,665.5C381.165,675,414.586,694,437.08,703.5C459.574,713,471.141,713,476.924,713L482.708,713" id="L-FUNCTION_SUMMARY-group_env-0" class="edge-thickness-normal edge-pattern-solid flowchart-link LS-FUNCTION_SUMMARY LE-group_env" style="fill:none;" marker-end="url(#my-svg_flowchart-pointEnd)"/><path d="M332.792,656L351.994,677.833C371.197,699.667,409.602,743.333,439.516,765.167C469.429,787,490.849,787,501.56,787L512.27,787" id="L-FUNCTION_SUMMARY-group_horizontal-0" class="edge-thickness-normal edge-pattern-solid flowchart-link LS-FUNCTION_SUMMARY LE-group_horizontal" style="fill:none;" marker-end="url(#my-svg_flowchart-pointEnd)"/><path d="M327.808,656L347.841,690.167C367.874,724.333,407.941,792.667,437.366,826.833C466.791,861,485.573,861,494.965,861L504.356,861" id="L-FUNCTION_SUMMARY-group_render-0" class="edge-thickness-normal edge-pattern-solid flowchart-link LS-FUNCTION_SUMMARY LE-group_render" style="fill:none;" marker-end="url(#my-svg_flowchart-pointEnd)"/><path d="M325.316,656L345.764,702.5C366.213,749,407.11,842,437.872,888.5C468.634,935,489.261,935,499.574,935L509.888,935" id="L-FUNCTION_SUMMARY-group_reset-0" class="edge-thickness-normal edge-pattern-solid flowchart-link LS-FUNCTION_SUMMARY LE-group_reset" style="fill:none;" marker-end="url(#my-svg_flowchart-pointEnd)"/><path d="M323.821,656L344.518,714.833C365.216,773.667,406.612,891.333,435.917,950.167C465.223,1009,482.438,1009,491.046,1009L499.653,1009" id="L-FUNCTION_SUMMARY-group_runtime-0" class="edge-thickness-normal edge-pattern-solid flowchart-link LS-FUNCTION_SUMMARY LE-group_runtime" style="fill:none;" marker-end="url(#my-svg_flowchart-pointEnd)"/><path d="M322.824,656L343.688,727.167C364.552,798.333,406.28,940.667,434.268,1011.833C462.257,1083,476.506,1083,483.63,1083L490.755,1083" id="L-FUNCTION_SUMMARY-group_sim-0" class="edge-thickness-normal edge-pattern-solid flowchart-link LS-FUNCTION_SUMMARY LE-group_sim" style="fill:none;" marker-end="url(#my-svg_flowchart-pointEnd)"/><path d="M322.112,656L343.094,739.5C364.077,823,406.042,990,440.146,1073.5C474.249,1157,500.49,1157,513.611,1157L526.731,1157" id="L-FUNCTION_SUMMARY-group_stable-0" class="edge-thickness-normal edge-pattern-solid flowchart-link LS-FUNCTION_SUMMARY LE-group_stable" style="fill:none;" marker-end="url(#my-svg_flowchart-pointEnd)"/><path d="M321.578,656L342.649,751.833C363.721,847.667,405.864,1039.333,440.852,1135.167C475.84,1231,503.672,1231,517.589,1231L531.505,1231" id="L-FUNCTION_SUMMARY-group_view-0" class="edge-thickness-normal edge-pattern-solid flowchart-link LS-FUNCTION_SUMMARY LE-group_view" style="fill:none;" marker-end="url(#my-svg_flowchart-pointEnd)"/></g><g class="edgeLabels"><g class="edgeLabel"><g class="label" transform="translate(0, 0)"><rect rx="0" ry="0" width="0" height="0"/><text style=""><tspan xml:space="preserve" dy="1em" x="0" class="row"/></text></g></g><g class="edgeLabel"><g class="label" transform="translate(0, 0)"><rect rx="0" ry="0" width="0" height="0"/><text style=""><tspan xml:space="preserve" dy="1em" x="0" class="row"/></text></g></g><g class="edgeLabel"><g class="label" transform="translate(0, 0)"><rect rx="0" ry="0" width="0" height="0"/><text style=""><tspan xml:space="preserve" dy="1em" x="0" class="row"/></text></g></g><g class="edgeLabel"><g class="label" transform="translate(0, 0)"><rect rx="0" ry="0" width="0" height="0"/><text style=""><tspan xml:space="preserve" dy="1em" x="0" class="row"/></text></g></g><g class="edgeLabel"><g class="label" transform="translate(0, 0)"><rect rx="0" ry="0" width="0" height="0"/><text style=""><tspan xml:space="preserve" dy="1em" x="0" class="row"/></text></g></g><g class="edgeLabel"><g class="label" transform="translate(0, 0)"><rect rx="0" ry="0" width="0" height="0"/><text style=""><tspan xml:space="preserve" dy="1em" x="0" class="row"/></text></g></g><g class="edgeLabel"><g class="label" transform="translate(0, 0)"><rect rx="0" ry="0" width="0" height="0"/><text style=""><tspan xml:space="preserve" dy="1em" x="0" class="row"/></text></g></g><g class="edgeLabel"><g class="label" transform="translate(0, 0)"><rect rx="0" ry="0" width="0" height="0"/><text style=""><tspan xml:space="preserve" dy="1em" x="0" class="row"/></text></g></g><g class="edgeLabel"><g class="label" transform="translate(0, 0)"><rect rx="0" ry="0" width="0" height="0"/><text style=""><tspan xml:space="preserve" dy="1em" x="0" class="row"/></text></g></g><g class="edgeLabel"><g class="label" transform="translate(0, 0)"><rect rx="0" ry="0" width="0" height="0"/><text style=""><tspan xml:space="preserve" dy="1em" x="0" class="row"/></text></g></g><g class="edgeLabel"><g class="label" transform="translate(0, 0)"><rect rx="0" ry="0" width="0" height="0"/><text style=""><tspan xml:space="preserve" dy="1em" x="0" class="row"/></text></g></g><g class="edgeLabel"><g class="label" transform="translate(0, 0)"><rect rx="0" ry="0" width="0" height="0"/><text style=""><tspan xml:space="preserve" dy="1em" x="0" class="row"/></text></g></g><g class="edgeLabel"><g class="label" transform="translate(0, 0)"><rect rx="0" ry="0" width="0" height="0"/><text style=""><tspan xml:space="preserve" dy="1em" x="0" class="row"/></text></g></g><g class="edgeLabel"><g class="label" transform="translate(0, 0)"><rect rx="0" ry="0" width="0" height="0"/><text style=""><tspan xml:space="preserve" dy="1em" x="0" class="row"/></text></g></g><g class="edgeLabel"><g class="label" transform="translate(0, 0)"><rect rx="0" ry="0" width="0" height="0"/><text style=""><tspan xml:space="preserve" dy="1em" x="0" class="row"/></text></g></g><g class="edgeLabel"><g class="label" transform="translate(0, 0)"><rect rx="0" ry="0" width="0" height="0"/><text style=""><tspan xml:space="preserve" dy="1em" x="0" class="row"/></text></g></g><g class="edgeLabel"><g class="label" transform="translate(0, 0)"><rect rx="0" ry="0" width="0" height="0"/><text style=""><tspan xml:space="preserve" dy="1em" x="0" class="row"/></text></g></g><g class="edgeLabel"><g class="label" transform="translate(0, 0)"><rect rx="0" ry="0" width="0" height="0"/><text style=""><tspan xml:space="preserve" dy="1em" x="0" class="row"/></text></g></g><g class="edgeLabel"><g class="label" transform="translate(0, 0)"><rect rx="0" ry="0" width="0" height="0"/><text style=""><tspan xml:space="preserve" dy="1em" x="0" class="row"/></text></g></g><g class="edgeLabel"><g class="label" transform="translate(0, 0)"><rect rx="0" ry="0" width="0" height="0"/><text style=""><tspan xml:space="preserve" dy="1em" x="0" class="row"/></text></g></g><g class="edgeLabel"><g class="label" transform="translate(0, 0)"><rect rx="0" ry="0" width="0" height="0"/><text style=""><tspan xml:space="preserve" dy="1em" x="0" class="row"/></text></g></g><g class="edgeLabel"><g class="label" transform="translate(0, 0)"><rect rx="0" ry="0" width="0" height="0"/><text style=""><tspan xml:space="preserve" dy="1em" x="0" class="row"/></text></g></g><g class="edgeLabel"><g class="label" transform="translate(0, 0)"><rect rx="0" ry="0" width="0" height="0"/><text style=""><tspan xml:space="preserve" dy="1em" x="0" class="row"/></text></g></g><g class="edgeLabel"><g class="label" transform="translate(0, 0)"><rect rx="0" ry="0" width="0" height="0"/><text style=""><tspan xml:space="preserve" dy="1em" x="0" class="row"/></text></g></g><g class="edgeLabel"><g class="label" transform="translate(0, 0)"><rect rx="0" ry="0" width="0" height="0"/><text style=""><tspan xml:space="preserve" dy="1em" x="0" class="row"/></text></g></g><g class="edgeLabel"><g class="label" transform="translate(0, 0)"><rect rx="0" ry="0" width="0" height="0"/><text style=""><tspan xml:space="preserve" dy="1em" x="0" class="row"/></text></g></g><g class="edgeLabel"><g class="label" transform="translate(0, 0)"><rect rx="0" ry="0" width="0" height="0"/><text style=""><tspan xml:space="preserve" dy="1em" x="0" class="row"/></text></g></g><g class="edgeLabel"><g class="label" transform="translate(0, 0)"><rect rx="0" ry="0" width="0" height="0"/><text style=""><tspan xml:space="preserve" dy="1em" x="0" class="row"/></text></g></g><g class="edgeLabel"><g class="label" transform="translate(0, 0)"><rect rx="0" ry="0" width="0" height="0"/><text style=""><tspan xml:space="preserve" dy="1em" x="0" class="row"/></text></g></g><g class="edgeLabel"><g class="label" transform="translate(0, 0)"><rect rx="0" ry="0" width="0" height="0"/><text style=""><tspan xml:space="preserve" dy="1em" x="0" class="row"/></text></g></g></g><g class="nodes"><g class="node default default flowchart-label" id="flowchart-group_draw-40" data-node="true" data-id="group_draw" transform="translate(570.8671875, 47)"><rect class="basic label-container" style="" rx="0" ry="0" x="-59.3515625" y="-17" width="118.703125" height="34"/><g class="label" style="" transform="translate(0, -9.5)"><rect/><text style=""><tspan xml:space="preserve" dy="1em" x="0" class="row">draw layer: 19</tspan></text></g></g><g class="node default default flowchart-label" id="flowchart-FUNCTION_SUMMARY-3" data-node="true" data-id="FUNCTION_SUMMARY" transform="translate(317.83984375, 639)"><rect class="basic label-container" style="" rx="0" ry="0" x="-90.16796875" y="-17" width="180.3359375" height="34"/><g class="label" style="" transform="translate(0, -9.5)"><rect/><text style=""><tspan xml:space="preserve" dy="1em" x="0" class="row">Top-level functions: 46</tspan></text></g></g><g class="node default default flowchart-label" id="flowchart-group_build-43" data-node="true" data-id="group_build" transform="translate(570.8671875, 121)"><rect class="basic label-container" style="" rx="0" ry="0" x="-55.6640625" y="-17" width="111.328125" height="34"/><g class="label" style="" transform="translate(0, -9.5)"><rect/><text style=""><tspan xml:space="preserve" dy="1em" x="0" class="row">build layer: 8</tspan></text></g></g><g class="node default default flowchart-label" id="flowchart-group_format-46" data-node="true" data-id="group_format" transform="translate(570.8671875, 195)"><rect class="basic label-container" style="" rx="0" ry="0" x="-61.8125" y="-17" width="123.625" height="34"/><g class="label" style="" transform="translate(0, -9.5)"><rect/><text style=""><tspan xml:space="preserve" dy="1em" x="0" class="row">format layer: 2</tspan></text></g></g><g class="node default default flowchart-label" id="flowchart-group_resolve-49" data-node="true" data-id="group_resolve" transform="translate(570.8671875, 269)"><rect class="basic label-container" style="" rx="0" ry="0" x="-63.078125" y="-17" width="126.15625" height="34"/><g class="label" style="" transform="translate(0, -9.5)"><rect/><text style=""><tspan xml:space="preserve" dy="1em" x="0" class="row">resolve layer: 2</tspan></text></g></g><g class="node default default flowchart-label" id="flowchart-group_save-52" data-node="true" data-id="group_save" transform="translate(570.8671875, 343)"><rect class="basic label-container" style="" rx="0" ry="0" x="-53.15625" y="-17" width="106.3125" height="34"/><g class="label" style="" transform="translate(0, -9.5)"><rect/><text style=""><tspan xml:space="preserve" dy="1em" x="0" class="row">save layer: 2</tspan></text></g></g><g class="node default default flowchart-label" id="flowchart-group_snapshot-55" data-node="true" data-id="group_snapshot" transform="translate(570.8671875, 417)"><rect class="basic label-container" style="" rx="0" ry="0" x="-48.390625" y="-17" width="96.78125" height="34"/><g class="label" style="" transform="translate(0, -9.5)"><rect/><text style=""><tspan xml:space="preserve" dy="1em" x="0" class="row">snapshot: 2</tspan></text></g></g><g class="node default default flowchart-label" id="flowchart-group_compact-58" data-node="true" data-id="group_compact" transform="translate(570.8671875, 491)"><rect class="basic label-container" style="" rx="0" ry="0" x="-47.734375" y="-17" width="95.46875" height="34"/><g class="label" style="" transform="translate(0, -9.5)"><rect/><text style=""><tspan xml:space="preserve" dy="1em" x="0" class="row">compact: 1</tspan></text></g></g><g class="node default default flowchart-label" id="flowchart-group_compute-61" data-node="true" data-id="group_compute" transform="translate(570.8671875, 565)"><rect class="basic label-container" style="" rx="0" ry="0" x="-68.6953125" y="-17" width="137.390625" height="34"/><g class="label" style="" transform="translate(0, -9.5)"><rect/><text style=""><tspan xml:space="preserve" dy="1em" x="0" class="row">compute layer: 1</tspan></text></g></g><g class="node default default flowchart-label" id="flowchart-group_configure-64" data-node="true" data-id="group_configure" transform="translate(570.8671875, 639)"><rect class="basic label-container" style="" rx="0" ry="0" x="-50.765625" y="-17" width="101.53125" height="34"/><g class="label" style="" transform="translate(0, -9.5)"><rect/><text style=""><tspan xml:space="preserve" dy="1em" x="0" class="row">configure: 1</tspan></text></g></g><g class="node default default flowchart-label" id="flowchart-group_env-67" data-node="true" data-id="group_env" transform="translate(570.8671875, 713)"><rect class="basic label-container" style="" rx="0" ry="0" x="-82.859375" y="-17" width="165.71875" height="34"/><g class="label" style="" transform="translate(0, -9.5)"><rect/><text style=""><tspan xml:space="preserve" dy="1em" x="0" class="row">environment state: 1</tspan></text></g></g><g class="node default default flowchart-label" id="flowchart-group_horizontal-70" data-node="true" data-id="group_horizontal" transform="translate(570.8671875, 787)"><rect class="basic label-container" style="" rx="0" ry="0" x="-53.296875" y="-17" width="106.59375" height="34"/><g class="label" style="" transform="translate(0, -9.5)"><rect/><text style=""><tspan xml:space="preserve" dy="1em" x="0" class="row">horizontal: 1</tspan></text></g></g><g class="node default default flowchart-label" id="flowchart-group_render-73" data-node="true" data-id="group_render" transform="translate(570.8671875, 861)"><rect class="basic label-container" style="" rx="0" ry="0" x="-61.2109375" y="-17" width="122.421875" height="34"/><g class="label" style="" transform="translate(0, -9.5)"><rect/><text style=""><tspan xml:space="preserve" dy="1em" x="0" class="row">render layer: 1</tspan></text></g></g><g class="node default default flowchart-label" id="flowchart-group_reset-76" data-node="true" data-id="group_reset" transform="translate(570.8671875, 935)"><rect class="basic label-container" style="" rx="0" ry="0" x="-55.6796875" y="-17" width="111.359375" height="34"/><g class="label" style="" transform="translate(0, -9.5)"><rect/><text style=""><tspan xml:space="preserve" dy="1em" x="0" class="row">reset layer: 1</tspan></text></g></g><g class="node default default flowchart-label" id="flowchart-group_runtime-79" data-node="true" data-id="group_runtime" transform="translate(570.8671875, 1009)"><rect class="basic label-container" style="" rx="0" ry="0" x="-65.9140625" y="-17" width="131.828125" height="34"/><g class="label" style="" transform="translate(0, -9.5)"><rect/><text style=""><tspan xml:space="preserve" dy="1em" x="0" class="row">runtime state: 1</tspan></text></g></g><g class="node default default flowchart-label" id="flowchart-group_sim-82" data-node="true" data-id="group_sim" transform="translate(570.8671875, 1083)"><rect class="basic label-container" style="" rx="0" ry="0" x="-74.8125" y="-17" width="149.625" height="34"/><g class="label" style="" transform="translate(0, -9.5)"><rect/><text style=""><tspan xml:space="preserve" dy="1em" x="0" class="row">simulation state: 1</tspan></text></g></g><g class="node default default flowchart-label" id="flowchart-group_stable-85" data-node="true" data-id="group_stable" transform="translate(570.8671875, 1157)"><rect class="basic label-container" style="" rx="0" ry="0" x="-38.8359375" y="-17" width="77.671875" height="34"/><g class="label" style="" transform="translate(0, -9.5)"><rect/><text style=""><tspan xml:space="preserve" dy="1em" x="0" class="row">stable: 1</tspan></text></g></g><g class="node default default flowchart-label" id="flowchart-group_view-88" data-node="true" data-id="group_view" transform="translate(570.8671875, 1231)"><rect class="basic label-container" style="" rx="0" ry="0" x="-34.0625" y="-17" width="68.125" height="34"/><g class="label" style="" transform="translate(0, -9.5)"><rect/><text style=""><tspan xml:space="preserve" dy="1em" x="0" class="row">view: 1</tspan></text></g></g><g class="node default default flowchart-label" id="flowchart-module___future-13" data-node="true" data-id="module___future" transform="translate(570.8671875, 1493)"><rect class="basic label-container" style="" rx="0" ry="0" x="-47.4296875" y="-17" width="94.859375" height="34"/><g class="label" style="" transform="translate(0, -9.5)"><rect/><text style=""><tspan xml:space="preserve" dy="1em" x="0" class="row">__future__</tspan></text></g></g><g class="node default default flowchart-label" id="flowchart-IMPORT_SUMMARY-1" data-node="true" data-id="IMPORT_SUMMARY" transform="translate(317.83984375, 1789)"><rect class="basic label-container" style="" rx="0" ry="0" x="-73.078125" y="-17" width="146.15625" height="34"/><g class="label" style="" transform="translate(0, -9.5)"><rect/><text style=""><tspan xml:space="preserve" dy="1em" x="0" class="row">Import modules: 9</tspan></text></g></g><g class="node default default flowchart-label" id="flowchart-module_config_constants-16" data-node="true" data-id="module_config_constants" transform="translate(570.8671875, 1567)"><rect class="basic label-container" style="" rx="0" ry="0" x="-66.59765625" y="-17" width="133.1953125" height="34"/><g class="label" style="" transform="translate(0, -9.5)"><rect/><text style=""><tspan xml:space="preserve" dy="1em" x="0" class="row">config.constants</tspan></text></g></g><g class="node default default flowchart-label" id="flowchart-module_datetime-19" data-node="true" data-id="module_datetime" transform="translate(570.8671875, 1641)"><rect class="basic label-container" style="" rx="0" ry="0" x="-40.2890625" y="-17" width="80.578125" height="34"/><g class="label" style="" transform="translate(0, -9.5)"><rect/><text style=""><tspan xml:space="preserve" dy="1em" x="0" class="row">datetime</tspan></text></g></g><g class="node default default flowchart-label" id="flowchart-module_emx_api-22" data-node="true" data-id="module_emx_api" transform="translate(570.8671875, 1715)"><rect class="basic label-container" style="" rx="0" ry="0" x="-36.390625" y="-17" width="72.78125" height="34"/><g class="label" style="" transform="translate(0, -9.5)"><rect/><text style=""><tspan xml:space="preserve" dy="1em" x="0" class="row">emx.api</tspan></text></g></g><g class="node default default flowchart-label" id="flowchart-module_json-25" data-node="true" data-id="module_json" transform="translate(570.8671875, 1789)"><rect class="basic label-container" style="" rx="0" ry="0" x="-22.96484375" y="-17" width="45.9296875" height="34"/><g class="label" style="" transform="translate(0, -9.5)"><rect/><text style=""><tspan xml:space="preserve" dy="1em" x="0" class="row">json</tspan></text></g></g><g class="node default default flowchart-label" id="flowchart-module_math-28" data-node="true" data-id="module_math" transform="translate(570.8671875, 1863)"><rect class="basic label-container" style="" rx="0" ry="0" x="-26.015625" y="-17" width="52.03125" height="34"/><g class="label" style="" transform="translate(0, -9.5)"><rect/><text style=""><tspan xml:space="preserve" dy="1em" x="0" class="row">math</tspan></text></g></g><g class="node default default flowchart-label" id="flowchart-module_os-31" data-node="true" data-id="module_os" transform="translate(570.8671875, 1937)"><rect class="basic label-container" style="" rx="0" ry="0" x="-15.29296875" y="-17" width="30.5859375" height="34"/><g class="label" style="" transform="translate(0, -9.5)"><rect/><text style=""><tspan xml:space="preserve" dy="1em" x="0" class="row">os</tspan></text></g></g><g class="node default default flowchart-label" id="flowchart-module_pygame-34" data-node="true" data-id="module_pygame" transform="translate(570.8671875, 2011)"><rect class="basic label-container" style="" rx="0" ry="0" x="-35.26171875" y="-17" width="70.5234375" height="34"/><g class="label" style="" transform="translate(0, -9.5)"><rect/><text style=""><tspan xml:space="preserve" dy="1em" x="0" class="row">pygame</tspan></text></g></g><g class="node default default flowchart-label" id="flowchart-module_tuning_api-37" data-node="true" data-id="module_tuning_api" transform="translate(570.8671875, 2085)"><rect class="basic label-container" style="" rx="0" ry="0" x="-43.9609375" y="-17" width="87.921875" height="34"/><g class="label" style="" transform="translate(0, -9.5)"><rect/><text style=""><tspan xml:space="preserve" dy="1em" x="0" class="row">tuning.api</tspan></text></g></g><g class="node default default flowchart-label" id="flowchart-FILE-0" data-node="true" data-id="FILE" transform="translate(53.8359375, 1362)"><rect class="basic label-container" style="" rx="0" ry="0" x="-53.8359375" y="-17" width="107.671875" height="34"/><g class="label" style="" transform="translate(0, -9.5)"><rect/><text style=""><tspan xml:space="preserve" dy="1em" x="0" class="row">rendering.py</tspan></text></g></g><g class="node default default flowchart-label" id="flowchart-SYMBOL_SUMMARY-2" data-node="true" data-id="SYMBOL_SUMMARY" transform="translate(317.83984375, 1325)"><rect class="basic label-container" style="" rx="0" ry="0" x="-84.84375" y="-17" width="169.6875" height="34"/><g class="label" style="" transform="translate(0, -9.5)"><rect/><text style=""><tspan xml:space="preserve" dy="1em" x="0" class="row">Imported symbols: 40</tspan></text></g></g><g class="node default default flowchart-label" id="flowchart-CLASS_SUMMARY-4" data-node="true" data-id="CLASS_SUMMARY" transform="translate(317.83984375, 1399)"><rect class="basic label-container" style="" rx="0" ry="0" x="-42.7734375" y="-17" width="85.546875" height="34"/><g class="label" style="" transform="translate(0, -9.5)"><rect/><text style=""><tspan xml:space="preserve" dy="1em" x="0" class="row">Classes: 0</tspan></text></g></g></g></g></g></svg>